<svg width="14" height="13" viewBox="0 0 14 13" fill="none" xmlns="http://www.w3.org/2000/svg">
<path d="M5.33333 0.333496H8C8.35362 0.333496 8.69276 0.473972 8.94281 0.72402C9.19286 0.974069 9.33333 1.31321 9.33333 1.66683V3.00016H12C12.3536 3.00016 12.6928 3.14064 12.9428 3.39069C13.1929 3.64074 13.3333 3.97987 13.3333 4.3335V11.6668C13.3333 12.0205 13.1929 12.3596 12.9428 12.6096C12.6928 12.8597 12.3536 13.0002 12 13.0002H1.33333C0.979711 13.0002 0.640573 12.8597 0.390524 12.6096C0.140476 12.3596 0 12.0205 0 11.6668V4.3335C0 3.5935 0.593333 3.00016 1.33333 3.00016H4V1.66683C4 0.926829 4.59333 0.333496 5.33333 0.333496ZM8 3.00016V1.66683H5.33333V3.00016H8Z" fill="#1F1F24"/>
</svg>
