<svg width="14" height="12" viewBox="0 0 14 12" fill="none" xmlns="http://www.w3.org/2000/svg">
<path d="M1.93833 6.78652V8.65986C1.93833 9.14652 2.205 9.59986 2.63167 9.83319L5.965 11.6532C6.365 11.8732 6.845 11.8732 7.245 11.6532L10.5783 9.83319C11.005 9.59986 11.2717 9.14652 11.2717 8.65986V6.78652L7.245 8.98652C6.845 9.20652 6.365 9.20652 5.965 8.98652L1.93833 6.78652ZM5.965 0.346523L0.345 3.41319C-0.115 3.66652 -0.115 4.33319 0.345 4.58652L5.965 7.65319C6.365 7.87319 6.845 7.87319 7.245 7.65319L12.605 4.72652V8.66652C12.605 9.03319 12.905 9.33319 13.2717 9.33319C13.6383 9.33319 13.9383 9.03319 13.9383 8.66652V4.39319C13.9383 4.14652 13.805 3.92652 13.5917 3.80652L7.245 0.346523C6.845 0.13319 6.365 0.13319 5.965 0.346523Z" fill="#1F1F24"/>
</svg>
