<svg xmlns="http://www.w3.org/2000/svg" width="110" height="110" version="1.0"><circle cx="55" cy="55" r="55" fill="#FABC3D"/><path fill="#FFF" d="M25.44 49.62a3.987 3.987 0 0 0 5.59-.37C35.27 44.51 39 46 39 46s-2 4-1 12c-6.675 3.337-8.475 12.934-8.889 16.024 1.359 1.4 3.388 2.641 5.923 3.673C35.691 64.875 46 63 46 63c3 2 13 2 17 0 3 7 8.31 5.16 12 7 2.978 1.489 3.184 4.639 3.095 6.152 1.499-.892 2.699-1.879 3.504-2.952a2.977 2.977 0 0 1 1.353-1.005C82.649 69.172 80.746 64.831 78 63c4.64-10.83-.02-15.27-7-16.77-5.01-1.07-11.2-.62-16.01.08-1.49.22-2.85.46-3.99.69 0-10.76-5.737-15.99-13.49-15.99-3.51 0-6.414 2.198-8.62 4.74-2.51 2.88-4.36 6.45-4.87 8.83-.35 1.69-.34 3.42.92 4.59.15.15.32.3.5.45z"/><path fill="#84462D" d="M54.99 46.31c-1.49.22-2.85.46-3.99.69 0-10.76-5.737-15.99-13.49-15.99-3.51 0-6.411 2.195-8.62 4.74C28.8 33.06 29.66 27 39 27c11.61 0 15.73 12.18 15.99 19.31zM73.417 46.912c4.824 1.728 7.791 5.421 5.814 12.602C81.861 63.556 84.813 67 87 67c0-19.687-4.847-21.93-13.583-20.088z"/><path fill="#DF2C2C" d="M71 46.23V55a4 4 0 0 1-4 4H55a4 4 0 0 1-4-4v-8c4.84-.97 13.44-2.17 20-.77z"/><circle cx="33" cy="38" r="2" fill="#9C6144"/><path fill="#9C6144" d="M55 87c-11.481 0-25.76-2.68-31.4-10.2a3 3 0 0 1 4.801-3.6C31.899 77.865 42.588 81 55 81s23.101-3.135 26.6-7.8a3 3 0 0 1 4.801 3.6C80.759 84.32 66.481 87 55 87zM39 27c-9.34 0-10.2 6.06-10.11 8.75 2.209-2.545 5.11-4.74 8.62-4.74 6.796 0 12.041 4.02 13.233 12.258l3.205-3.205C52.095 33.695 47.608 27 39 27z"/><path fill="#FA5655" d="M51 47v8c0 1.107.451 2.109 1.178 2.833l12.241-12.241C59.425 45.559 54.325 46.333 51 47z"/></svg>