<svg xmlns="http://www.w3.org/2000/svg" width="32" height="32"><path style="isolation:auto;mix-blend-mode:normal" fill="#25b39e" d="m1.858 1036.504 4.34 4.341c-.284.169-.559.363-.805.609a3.991 3.991 0 0 0 0 5.657 3.991 3.991 0 0 0 5.657 0c.246-.246.44-.52.61-.805l4.34 4.34 4.34-4.34a3.995 3.995 0 0 1-.804-.61 3.991 3.991 0 0 1 0-5.656 3.991 3.991 0 0 1 5.656 0 4 4 0 0 1 .61.805l4.34-4.34-4.34-4.341c.284-.17.559-.364.805-.61a3.991 3.991 0 0 0 0-5.656 3.991 3.991 0 0 0-5.657 0c-.246.245-.44.52-.61.805l-4.34-4.34-4.34 4.34c.285.169.559.363.804.609a3.991 3.991 0 0 1 0 5.657 3.991 3.991 0 0 1-5.656 0 4 4 0 0 1-.61-.805l-4.34 4.34z" color="#000" overflow="visible" transform="translate(0 -1020.362)"/></svg>