<svg width="12" height="12" viewBox="0 0 12 12" fill="none" xmlns="http://www.w3.org/2000/svg">
<path d="M10.6667 0H1.33333C0.6 0 0 0.6 0 1.33333V10.6667C0 11.4 0.6 12 1.33333 12H10.6667C11.4 12 12 11.4 12 10.6667V1.33333C12 0.6 11.4 0 10.6667 0ZM3.33333 9.33333C2.96667 9.33333 2.66667 9.03333 2.66667 8.66667V5.33333C2.66667 4.96667 2.96667 4.66667 3.33333 4.66667C3.7 4.66667 4 4.96667 4 5.33333V8.66667C4 9.03333 3.7 9.33333 3.33333 9.33333ZM6 9.33333C5.63333 9.33333 5.33333 9.03333 5.33333 8.66667V3.33333C5.33333 2.96667 5.63333 2.66667 6 2.66667C6.36667 2.66667 6.66667 2.96667 6.66667 3.33333V8.66667C6.66667 9.03333 6.36667 9.33333 6 9.33333ZM8.66667 9.33333C8.3 9.33333 8 9.03333 8 8.66667V7.33333C8 6.96667 8.3 6.66667 8.66667 6.66667C9.03333 6.66667 9.33333 6.96667 9.33333 7.33333V8.66667C9.33333 9.03333 9.03333 9.33333 8.66667 9.33333Z" fill="#1F1F24"/>
</svg>
